<?xml version="1.0" encoding="UTF-8" standalone="no"?>
<svg
   version="1.1"
   width="595.27557pt"
   height="841.88977pt"
   id="svg11"
   viewBox="0 0 595.27557 841.88977"
   sodipodi:docname="Logo.cdr"
   xmlns:inkscape="http://www.inkscape.org/namespaces/inkscape"
   xmlns:sodipodi="http://sodipodi.sourceforge.net/DTD/sodipodi-0.dtd"
   xmlns="http://www.w3.org/2000/svg"
   xmlns:svg="http://www.w3.org/2000/svg">
  <defs
     id="defs15" />
  <sodipodi:namedview
     id="namedview13"
     pagecolor="#ffffff"
     bordercolor="#000000"
     borderopacity="0.25"
     inkscape:showpageshadow="2"
     inkscape:pageopacity="0.0"
     inkscape:pagecheckerboard="0"
     inkscape:deskcolor="#d1d1d1"
     inkscape:document-units="pt" />
  <g
     id="Layer1000">
    <path
       d="m 332.5754,421.5496 c -8.5245,-1.843 -45.732,-29.3787 -53.7532,-32.6559 -1.4682,1.2971 -2.2206,3.999 -2.9275,6.054 -1.0202,2.9658 -1.6063,4.1895 -1.5155,7.4629 9.7156,4.015 52.0338,32.2498 63.4945,39.7867 l 15.5239,10.0463 c 1.5093,0.9743 4.2461,2.5394 5.205,3.2884 0.4051,-7.2996 -18.6712,-57.2124 -23.3226,-69.2191 -2.6158,-6.7523 -6.7791,-15.8384 -8.6395,-22.4034 l 25.051,-0.0921 c -1.1321,2.7914 -2.5079,1.8834 -4.2546,4.4033 5.5147,0.0725 11.0363,0.0908 16.5561,0.1539 9.2095,0.1053 6.6952,0.6493 13.1308,-3.3193 3.7716,-2.3261 18.3087,-10.1139 19.7494,-12.9939 l -88.8164,-1.1153 c 1.2299,4.0148 1.9029,9.8233 4.7527,18.6302 4.9324,15.2438 17.9291,40.5866 19.7659,51.9733 z"
       style="fill:#2895c4;fill-rule:evenodd"
       id="path2" />
    <path
       d="m 198.4039,352.8119 c 1.0965,6.1205 55.4437,32.8337 57.6737,37.712 2.9852,6.5289 -20.0165,52.4042 -22.2797,64.8297 10.6204,-1.6765 26.9132,-34.2642 32.2447,-45.836 5.1332,-11.1434 20.7362,-45.4969 19.7611,-58.7557 z m 63.3842,23.9546 c 2.2123,-2.6145 4.731,-10.2731 4.5725,-14.634 l -26.7907,-0.0138 c 1.4604,3.4007 19.9079,14.3159 22.2182,14.6478 z"
       style="fill:#2895c4;fill-rule:evenodd"
       id="path4" />
    <path
       d="m 274.0996,345.728 c 3.2624,0.0762 7.1266,0.1989 10.3454,-0.1288 4.3462,-0.4425 4.4842,-0.6616 5.9909,-4.2161 1.3679,-3.2274 4.1955,-12.8348 5.4205,-14.8113 3.2132,1.0054 7.3933,15.614 9.006,19.1755 l 12.4153,0.0258 c 0.9977,-7.562 -6.1246,-24.2115 -8.5921,-30.5054 l -10.6495,-25.6928 c -0.8065,-1.2297 -0.217,-0.858 -1.6119,-1.3894 -1.9671,1.0428 -1.757,2.7143 -3.1201,6.724 l -8.5863,21.4467 c -2.7135,6.6351 -9.7903,22.3519 -10.6182,29.3718 z"
       style="fill:#2895c4;fill-rule:evenodd"
       id="path6" />
    <path
       d="m 198.0533,511.9047 0.8847,4.6984 h 3.8749 l -3.9968,-20.5639 h -4.7903 l -4.4543,20.5639 h 3.8746 l 0.9153,-4.6984 z m -3.295,-3.1122 0.7625,-4.2715 c 0.2138,-1.1897 0.5188,-3.3256 0.7325,-4.6984 h 0.0916 c 0.1828,1.3728 0.4575,3.4171 0.6712,4.6681 l 0.671,4.3018 z m 10.5259,-10.1902 v 3.0812 h -1.7697 v 2.8375 h 1.7697 v 7.0481 c 0,2.349 0.4575,3.4781 1.2812,4.2712 0.7019,0.6713 1.7088,0.9459 2.8681,0.9459 1.0679,0 1.8916,-0.1221 2.4407,-0.2746 l -0.0304,-3.1119 c -0.3356,0.0609 -0.6409,0.0913 -1.0374,0.0913 -0.7932,0 -1.5254,-0.4269 -1.5254,-2.1663 v -6.8037 h 2.9288 v -2.8375 h -2.9288 v -4.0272 z m 13.8515,2.8372 c -2.9594,0 -5.7665,2.3799 -5.7665,7.7496 0,4.8512 2.1359,7.6581 5.7055,7.6581 2.2578,0 5.7053,-1.5256 5.7053,-7.7497 0,-4.6984 -2.1356,-7.658 -5.6443,-7.658 z m -0.0306,3.0206 c 1.3425,0 1.6781,2.5934 1.6781,4.6374 0,2.1969 -0.3356,4.6988 -1.6169,4.6988 -1.434,0 -1.8306,-2.136 -1.8306,-4.6988 0,-2.044 0.305,-4.6374 1.7694,-4.6374 z m 6.8649,12.143 h 10.9837 V 513.125 H 230.76 v -0.0916 l 6.224,-14.0346 v -2.9596 h -10.4037 v 3.4784 h 5.8884 v 0.0913 l -6.4987,14.6449 z m 29.5033,-11.5327 h -5.5222 v 3.2643 h 1.8306 v 4.9734 c -0.1525,0.061 -0.4271,0.0916 -0.7934,0.0916 -1.8609,0 -3.7831,-1.7697 -3.7831,-6.7125 0,-5.3696 2.1662,-7.2309 4.8815,-7.2309 1.0069,0 1.7697,0.1526 2.3494,0.4578 l 0.7016,-3.4477 c -0.6407,-0.305 -1.8,-0.6101 -3.356,-0.6101 -4.3631,0 -8.6343,3.1119 -8.7259,10.5869 -0.0609,3.5393 0.8847,6.5902 2.6544,8.2987 1.3728,1.3731 3.1425,2.0443 5.4918,2.0443 1.495,0 3.3866,-0.3662 4.2713,-0.7322 z m 13.5468,-3.3869 h -3.9969 v 9.5193 c 0,0.5188 -0.0915,0.9763 -0.2441,1.2816 -0.1831,0.4881 -0.6102,1.0066 -1.2815,1.0066 -1.1287,0 -1.495,-1.251 -1.495,-3.2035 v -8.604 h -4.0272 v 9.0312 c 0,4.0272 1.1594,6.1325 3.9969,6.1325 1.5253,0 2.7456,-0.8238 3.4475,-1.8306 h 0.0609 l 0.2138,1.5865 h 3.4475 c -0.061,-1.4034 -0.1219,-2.9594 -0.1219,-4.5459 z m 2.8678,14.9196 h 3.9662 v -9.3971 c 0,-0.4272 0.0612,-0.8544 0.1528,-1.1288 0.2744,-0.8849 0.8847,-1.3425 1.495,-1.3425 1.2509,0 1.3728,1.4341 1.3728,2.5019 v 9.3665 h 3.9662 v -9.4581 c 0,-0.3965 0.0613,-0.8237 0.1222,-1.0374 0.2747,-0.8847 0.7932,-1.3729 1.495,-1.3729 1.2203,0 1.4034,1.3729 1.4034,3.0816 v 8.7868 h 3.9663 v -9.4581 c 0,-3.6002 -1.1897,-5.7055 -3.8441,-5.7055 -0.7628,0 -1.495,0.1831 -2.1053,0.5187 -0.5797,0.3662 -1.129,0.9153 -1.495,1.495 h -0.0609 c -0.5188,-1.2509 -1.5866,-2.0137 -3.2647,-2.0137 -1.5559,0 -2.8068,0.8543 -3.5696,1.9834 h -0.061 l -0.1831,-1.7394 h -3.4781 c 0.0303,1.4037 0.1219,2.8375 0.1219,4.4853 z m 20.7467,0 h 3.9663 v -9.3971 c 0,-0.4272 0.0612,-0.8544 0.1528,-1.1288 0.2744,-0.8849 0.8847,-1.3425 1.495,-1.3425 1.2509,0 1.3728,1.4341 1.3728,2.5019 v 9.3665 h 3.9662 v -9.4581 c 0,-0.3965 0.0612,-0.8237 0.1222,-1.0374 0.2747,-0.8847 0.7931,-1.3729 1.495,-1.3729 1.2203,0 1.4034,1.3729 1.4034,3.0816 v 8.7868 h 3.9663 v -9.4581 c 0,-3.6002 -1.1897,-5.7055 -3.8441,-5.7055 -0.7628,0 -1.495,0.1831 -2.1053,0.5187 -0.5797,0.3662 -1.129,0.9153 -1.495,1.495 h -0.0609 c -0.5188,-1.2509 -1.5866,-2.0137 -3.2647,-2.0137 -1.5559,0 -2.8069,0.8543 -3.5697,1.9834 h -0.0609 l -0.1831,-1.7394 h -3.4781 c 0.0303,1.4037 0.1218,2.8375 0.1218,4.4853 z m 24.7437,0 v -14.9196 h -3.9969 v 14.9196 z m -2.0441,-21.052 c -1.0984,0 -2.0747,0.8237 -2.0443,2.1662 -0.0304,1.2815 0.8849,2.1662 1.9831,2.1662 1.2206,0 2.1359,-0.8847 2.1053,-2.1662 0,-1.3425 -0.8847,-2.1662 -2.0441,-2.1662 z m 4.8509,21.052 h 3.9969 v -9.0921 c 0,-0.5797 0.0915,-1.0678 0.2134,-1.3728 0.2747,-0.8847 0.8241,-1.3425 1.495,-1.3425 1.1597,0 1.4647,1.19 1.4647,2.4712 v 9.3362 h 3.9968 v -9.5802 c 0,-3.3256 -1.129,-5.5834 -3.9662,-5.5834 -1.5562,0 -2.8375,0.7628 -3.6309,1.9528 h -0.0609 l -0.1832,-1.7088 h -3.4475 c 0.0304,1.4037 0.1219,2.8375 0.1219,4.4853 z m 21.5096,-14.9196 -0.2134,1.495 h -0.061 c -0.5797,-1.1287 -1.5562,-1.739 -2.7459,-1.739 -2.7765,0 -5.0343,2.8681 -5.0343,7.8412 0,3.5696 1.3121,7.2309 4.6681,7.2309 1.129,0 2.1662,-0.5491 2.6849,-1.495 h 0.061 v 0.9153 c 0,2.2884 -0.7932,3.6306 -2.8069,3.6306 -1.1594,0 -2.1053,-0.305 -2.8681,-0.6406 l -0.7322,3.0815 c 1.0678,0.4578 2.3494,0.7019 3.7222,0.7019 2.1969,0 3.7528,-0.6103 4.8512,-1.6478 1.2203,-1.1594 1.8,-2.9288 1.8,-6.1325 v -8.5121 c 0,-1.8003 0.0916,-3.3869 0.1528,-4.7294 z m -0.6406,9.4278 c 0,0.3965 -0.061,0.8543 -0.1831,1.19 -0.305,0.7931 -0.8238,1.0678 -1.3422,1.0678 -1.1291,0 -1.9222,-1.4035 -1.9222,-4.18 0,-2.4406 0.5797,-4.3934 2.0134,-4.3934 0.6713,0 1.0985,0.5797 1.2816,1.2203 0.0915,0.3053 0.1525,0.7019 0.1525,1.0984 z m 17.7264,5.4918 1.3731,-6.7121 c 0.4272,-2.0138 0.7628,-4.3022 1.1288,-6.7734 h 0.0609 c 0.2747,2.5018 0.58,4.8512 0.9153,6.7427 l 1.2206,6.7428 h 4.1188 l 3.6309,-20.5639 h -3.9053 l -1.0069,8.1462 c -0.2747,2.38 -0.5187,4.5765 -0.7934,7.2615 h -0.0609 c -0.2441,-2.685 -0.6103,-4.9731 -0.9763,-7.2918 l -1.3731,-8.1159 h -3.234 l -1.4644,8.1768 c -0.4272,2.4712 -0.885,4.6984 -1.1594,7.2309 h -0.0915 c -0.2441,-2.5019 -0.4272,-4.8512 -0.7019,-7.2003 l -1.0069,-8.2074 h -4.1493 l 3.5087,20.5639 z m 18.8249,-15.1636 c -2.9594,0 -5.7665,2.3799 -5.7665,7.7496 0,4.8512 2.1359,7.6581 5.7056,7.6581 2.2578,0 5.7053,-1.5256 5.7053,-7.7497 0,-4.6984 -2.1357,-7.658 -5.6444,-7.658 z m -0.0306,3.0206 c 1.3425,0 1.6781,2.5934 1.6781,4.6374 0,2.1969 -0.3356,4.6988 -1.6169,4.6988 -1.434,0 -1.8306,-2.136 -1.8306,-4.6988 0,-2.044 0.305,-4.6374 1.7694,-4.6374 z m 7.9021,12.143 h 4.0275 v -7.5665 c 0,-0.6406 0.061,-1.1594 0.1525,-1.495 0.4578,-1.5559 1.5866,-2.1356 2.4409,-2.1356 0.3356,0 0.6103,0 0.8544,0.0609 v -3.9662 c -0.2441,-0.0612 -0.4578,-0.0612 -0.8544,-0.0612 -1.0984,0 -2.2884,0.8237 -2.9596,2.4103 h -0.0913 l -0.2137,-2.1663 h -3.4781 c 0.0609,1.3731 0.1218,2.99 0.1218,4.4853 z m 12.9668,-21.113 h -3.9968 v 21.113 h 3.9968 v -4.8512 l 0.6713,-1.2813 2.1359,6.1325 h 4.4544 l -3.8138,-8.6649 3.6003,-6.2547 h -4.3021 l -1.9222,4.4547 c -0.2744,0.6103 -0.4881,1.2203 -0.7625,2.0747 h -0.0613 z m -100.8663,43.0495 4.0578,14.9196 h 3.6919 l 3.9968,-14.9196 h -3.9359 l -1.1594,6.6512 c -0.2134,1.4037 -0.3965,2.6546 -0.5797,4.18 h -0.0609 c -0.2137,-1.495 -0.4272,-2.8375 -0.6406,-4.18 l -1.1291,-6.6512 z m -72.0343,-5.6444 v 20.564 h 3.9969 v -20.564 z m 7.2003,20.564 h 3.9969 v -9.0921 c 0,-0.5797 0.0915,-1.0679 0.2134,-1.3729 0.2747,-0.8847 0.824,-1.3425 1.495,-1.3425 1.1596,0 1.4647,1.19 1.4647,2.4713 v 9.3362 h 3.9968 v -9.5803 c 0,-3.3256 -1.129,-5.5834 -3.9662,-5.5834 -1.5563,0 -2.8375,0.7628 -3.6309,1.9528 h -0.061 l -0.1831,-1.7087 h -3.4475 c 0.0303,1.4037 0.1219,2.8375 0.1219,4.4853 z m 20.808,-21.113 v 7.4443 h -0.0609 c -0.3663,-0.8541 -1.19,-1.495 -2.5019,-1.495 -2.5325,0 -4.7903,2.5325 -4.7903,7.7193 0,4.1797 1.4647,7.6884 4.6378,7.6884 1.3728,0 2.5628,-0.8846 3.1119,-1.9221 h 0.0609 l 0.2137,1.6781 h 3.4475 c -0.0609,-1.3728 -0.1218,-2.99 -0.1218,-4.4241 v -16.6889 z m 0,15.8652 c 0,0.3662 -0.0306,0.7019 -0.1222,0.9153 -0.305,1.0375 -0.8847,1.3119 -1.3728,1.3119 -1.129,0 -1.8915,-1.495 -1.8915,-4.3325 0,-2.4103 0.5184,-4.4544 1.9221,-4.4544 0.7932,0 1.2813,0.8238 1.4338,1.7391 0.0306,0.305 0.0306,0.6103 0.0306,0.8847 z m 10.8006,5.2478 v -14.9196 h -3.9969 v 14.9196 z m -2.0441,-21.0521 c -1.0984,0 -2.0747,0.8238 -2.0443,2.1663 -0.0304,1.2815 0.8849,2.1662 1.9831,2.1662 1.2206,0 2.1359,-0.8847 2.1053,-2.1662 0,-1.3425 -0.8847,-2.1663 -2.0441,-2.1663 z m 15.1328,21.0521 c -0.1829,-1.0069 -0.2441,-2.2272 -0.2441,-3.4172 v -5.5528 c 0,-3.0206 -0.7322,-6.1937 -5.2781,-6.1937 -2.0747,0 -3.8137,0.6409 -4.6375,1.1291 l 0.7322,2.6849 c 0.8847,-0.5493 1.8609,-0.8543 3.0509,-0.8543 1.4035,0 2.1053,0.8543 2.1053,2.0137 v 0.3356 c -3.3865,0.0304 -6.8343,1.6475 -6.8343,5.5528 0,2.6544 1.6781,4.5459 3.9359,4.5459 1.3119,0 2.4712,-0.549 3.295,-1.7084 h 0.0609 l 0.2138,1.4644 z m -4.1494,-4.6681 c 0,0.244 -0.0303,0.4881 -0.0916,0.7018 -0.2743,0.8847 -1.0065,1.2813 -1.6474,1.2813 -0.6101,0 -1.4338,-0.5491 -1.4338,-2.0441 0,-2.0746 1.8303,-2.5018 3.1728,-2.5324 z m 11.9602,4.6681 h 3.9969 v -7.6581 c 0.244,0 0.5184,0 0.7931,0 1.6475,0 3.7222,-0.6103 5.0037,-1.9525 1.0678,-1.1594 1.7391,-2.7156 1.7391,-4.9428 0,-1.739 -0.5491,-3.4475 -1.7697,-4.5156 -1.3425,-1.2509 -3.2034,-1.5865 -5.5834,-1.5865 -1.5253,0 -3.0509,0.1528 -4.1797,0.3968 z m 3.9969,-17.2687 c 0.244,-0.0915 0.61,-0.1525 0.9762,-0.1525 1.8613,0 2.5934,1.4034 2.5934,3.2034 0,1.9222 -0.9153,3.3563 -2.929,3.3563 -0.2441,0 -0.4578,0 -0.6406,-0.0613 z m 22.3333,-0.7322 v 3.0813 h -1.7697 v 2.8375 h 1.7697 v 7.048 c 0,2.3491 0.4575,3.4781 1.2813,4.2713 0.7018,0.6712 1.7087,0.9459 2.8681,0.9459 1.0678,0 1.8915,-0.1222 2.4406,-0.2747 l -0.0303,-3.1119 c -0.3357,0.061 -0.641,0.0913 -1.0375,0.0913 -0.7932,0 -1.5253,-0.4269 -1.5253,-2.1662 v -6.8037 h 2.9287 v -2.8375 h -2.9287 v -4.0272 z m 10.8309,18.2449 c 1.4037,0 2.3494,-1.0372 2.3494,-2.6543 0,-1.6475 -1.0372,-2.6544 -2.3188,-2.6544 -1.2203,0 -2.3493,1.1288 -2.3493,2.6544 0,1.6171 1.0681,2.6543 2.3187,2.6543 z m 9.9465,-0.244 h 9.2749 v -3.3866 h -5.2781 v -17.1774 h -3.9968 z m 11.2583,-18.0009 v 3.0813 h -1.7696 v 2.8375 h 1.7696 v 7.048 c 0,2.3491 0.4576,3.4781 1.2813,4.2713 0.7019,0.6712 1.7087,0.9459 2.8681,0.9459 1.0678,0 1.8916,-0.1222 2.4406,-0.2747 l -0.0303,-3.1119 c -0.3356,0.061 -0.6409,0.0913 -1.0375,0.0913 -0.7931,0 -1.5253,-0.4269 -1.5253,-2.1662 v -6.8037 h 2.9288 v -2.8375 h -2.9288 v -4.0272 z m 15.4381,-3.1121 v 7.4443 h -0.0609 c -0.3663,-0.8541 -1.19,-1.495 -2.5019,-1.495 -2.5325,0 -4.7903,2.5325 -4.7903,7.7193 0,4.1797 1.4647,7.6884 4.6378,7.6884 1.3728,0 2.5628,-0.8846 3.1119,-1.9221 h 0.0609 l 0.2137,1.6781 h 3.4475 c -0.0609,-1.3728 -0.1219,-2.99 -0.1219,-4.4241 v -16.6889 z m 0,15.8652 c 0,0.3662 -0.0306,0.7019 -0.1222,0.9153 -0.305,1.0375 -0.8847,1.3119 -1.3728,1.3119 -1.129,0 -1.8916,-1.495 -1.8916,-4.3325 0,-2.4103 0.5185,-4.4544 1.9222,-4.4544 0.7932,0 1.2813,0.8238 1.4338,1.7391 0.0306,0.305 0.0306,0.6103 0.0306,0.8847 z m 8.8478,5.4918 c 1.4037,0 2.3493,-1.0372 2.3493,-2.6543 0,-1.6475 -1.0372,-2.6544 -2.3187,-2.6544 -1.2203,0 -2.3494,1.1288 -2.3494,2.6544 0,1.6171 1.0681,2.6543 2.3188,2.6543 z"
       style="fill:#006e99;fill-rule:evenodd"
       id="path8" />
  </g>
</svg>
